<?xml version="1.0" encoding="utf-8"?>

<!DOCTYPE svg PUBLIC "-//W3C//DTD SVG 1.1//EN" "http://www.w3.org/Graphics/SVG/1.1/DTD/svg11.dtd">
<!-- Uploaded to: SVG Repo, www.svgrepo.com, Generator: SVG Repo Mixer Tools -->
<svg height="800px" width="800px" version="1.1" id="_x32_" xmlns="http://www.w3.org/2000/svg" xmlns:xlink="http://www.w3.org/1999/xlink" 
	 viewBox="0 0 512 512"  xml:space="preserve">
<style type="text/css">
	.st0{fill:#000000;}
</style>
<g>
	<path class="st0" d="M322.955,321.129c-5.486-10.041-6.367-20.364-5.445-29.227c15.434-13.062,27.082-32.489,36.516-58.126
		c13.746-7.182,23.277-22.605,23.277-40.526c0-11.001-3.594-21.063-9.541-28.866l0.549-4.853
		c5.418-20.518,20.332-92.317-25.529-125.949c-23.918-29.9-56.211-34.683-92.092-31.095c-17.85,1.784-35.006,7.099-48.707,5.109
		c-15.711-2.284-28.789-5.585-32.621-7.502c-2.209-1.108-8.508,7.666-15.188,22.296c-13.248,29.017-21.082,78.965-12.84,124.028
		l2.035,17.958c-5.95,7.803-9.547,17.869-9.547,28.873c0,17.488,9.076,32.602,22.287,39.998
		c9.272,26.872,21.764,46.885,38.537,60.034c0.684,8.543-0.396,18.33-5.602,27.846C178.787,339.91,69.334,365.126,69.334,468.326
		C69.334,484.241,122.666,512,256,512c133.336,0,186.666-27.759,186.666-43.674C442.666,365.126,333.215,339.91,322.955,321.129z"/>
</g>
</svg>